# xmcd
#
# Track frame offsets:
#	150
#	14517
#	25979
#	42976
#	52745
#	67634
#	81199
#	94954
#	115696
#	129968
#	147240
#	161685
#
# Disc length: 2410
#
# Revision: 3
# Processed by: cddbd v1.5.1PL0 Copyright (c) Steve Scherf et al.
# Submitted via: DiscPlay 4.0.4
# Normalized: r1:DSETVAR1,TDELIM( - ),TSWAP
#
DISCID=9209680c
DTITLE=Various Artist - Lucky Luke Grestest Hit May 1998
DYEAR=1900
DGENRE=
TTITLE0=David Kersh - The Faster I go
TTITLE1=Wade Hayes - When The Wrong Ones loves you Right
TTITLE2=Farmer's Daughter - Calling All you Cowboys
TTITLE3=Steve Wariner and Garth Brooks - Burnin' the Roadhouse Down
TTITLE4=Jo Dee Masina - I'm Alright
TTITLE5=Toby Keith - Jackie Don Tucker
TTITLE6=Micheal Peterson - Drink, Swear, Steal and lie
TTITLE7=Garth Brooks - You Move Me
TTITLE8=Terri Clark - Emotional Girl
TTITLE9=Travis Tritt - Back up Against The Wall
TTITLE10=Reth Akins - Better Than it Used to Be
TTITLE11=Paul Brandt - Yeah
EXTD=
EXTT0=
EXTT1=
EXTT2=
EXTT3=
EXTT4=
EXTT5=
EXTT6=
EXTT7=
EXTT8=
EXTT9=
EXTT10=
EXTT11=
PLAYORDER=
